<?xml version="1.0" standalone="no"?>
<!DOCTYPE svg PUBLIC "-//W3C//DTD SVG 1.1//EN" "http://www.w3.org/Graphics/SVG/1.1/DTD/svg11.dtd">
<svg xmlns="http://www.w3.org/2000/svg" xmlns:xlink="http://www.w3.org/1999/xlink" id="rblSvg" width="100%" height="100%" viewBox="-21.0 -21.0 42.0 42.0" preserveAspectRatio="xMidYMid slice" version="1.1" onload="onLoad(evt)"> 
<title>
RedBlueLines
</title>
<!--
RedBlueLines
Copyright (C) 2011  Marcin Kik mki1967@gmail.com 
    The JavaScript code in this page is free software: you can
    redistribute it and/or modify it under the terms of the GNU
    General Public License (GNU GPL) as published by the Free Software
    Foundation, either version 3 of the License, or (at your option)
    any later version.  The code is distributed WITHOUT ANY WARRANTY;
    without even the implied warranty of MERCHANTABILITY or FITNESS
    FOR A PARTICULAR PURPOSE.  See the GNU GPL for more details.

    As additional permission under GNU GPL version 3 section 7, you
    may distribute non-source (e.g., minimized or compacted) forms of
    that code without the copy of the GNU GPL normally required by
    section 4, provided you include this license notice and a URL
    through which recipients can access the Corresponding Source.
-->
<rbl:rbldata xmlns:rbl="RedBlueLines.mki1967">
 <rbl:cursor>
  <rbl:cursorposition jsvalue="[0,0,0]"/>
  <rbl:cursorsize jsvalue="0.5"/>
  <rbl:cursorstep jsvalue="1"/>
 </rbl:cursor>
 <rbl:framesize jsvalue="10"/>
 <rbl:eyes>
  <rbl:lefteye jsvalue="[-3.25,0.0,-60.0]"/>
  <rbl:righteye jsvalue="[3.25,0.0,-60.0]"/>
  <rbl:monoeye jsvalue="[0.0,0.0,-60.0]"/>
  <rbl:eyesmode jsvalue="'stereo'"/>
 </rbl:eyes>
 <rbl:rotation jsvalue="[[-0.017898998017334446,-0.3817039307401352,0.9241113218262746],[-0.9233287612833732,-0.3482859670576113,-0.16174326489117222],[0.3835930453708551,-0.8561536044473989,-0.34620424771345387]]"/>
 <rbl:segments id="segmentsData">
  <rbl:seg jsvalue="[[-8,8,8],[8,8,8]]"/>
 <rbl:seg jsvalue="[[8,-8,8],[8,8,8]]"/>
 <rbl:seg jsvalue="[[-8,-8,8],[8,-8,8]]"/>
 <rbl:seg jsvalue="[[-8,-8,8],[-8,8,8]]"/>
 <rbl:seg jsvalue="[[-8,8,-8],[-8,8,8]]"/>
 <rbl:seg jsvalue="[[-8,-8,-8],[-8,8,-8]]"/>
 <rbl:seg jsvalue="[[-8,-8,-8],[-8,-8,8]]"/>
 <rbl:seg jsvalue="[[8,-8,-8],[8,-8,8]]"/>
 <rbl:seg jsvalue="[[8,-8,-8],[8,8,-8]]"/>
 <rbl:seg jsvalue="[[8,8,-8],[8,8,8]]"/>
 <rbl:seg jsvalue="[[-8,8,-8],[8,8,-8]]"/>
 <rbl:seg jsvalue="[[-8,-8,-8],[8,-8,-8]]"/>
 <rbl:seg jsvalue="[[-4,4,-4],[-4,4,4]]"/>
 <rbl:seg jsvalue="[[-4,-4,-4],[-4,4,-4]]"/>
 <rbl:seg jsvalue="[[-4,-4,-4],[-4,-4,4]]"/>
 <rbl:seg jsvalue="[[-4,-4,4],[-4,4,4]]"/>
 <rbl:seg jsvalue="[[-4,4,4],[4,4,4]]"/>
 <rbl:seg jsvalue="[[4,-4,4],[4,4,4]]"/>
 <rbl:seg jsvalue="[[-4,-4,4],[4,-4,4]]"/>
 <rbl:seg jsvalue="[[-4,-4,-4],[4,-4,-4]]"/>
 <rbl:seg jsvalue="[[4,-4,-4],[4,-4,4]]"/>
 <rbl:seg jsvalue="[[4,-4,-4],[4,4,-4]]"/>
 <rbl:seg jsvalue="[[4,4,-4],[4,4,4]]"/>
 <rbl:seg jsvalue="[[-4,4,-4],[4,4,-4]]"/>
 <rbl:seg jsvalue="[[4,4,-4],[8,8,-8]]"/>
 <rbl:seg jsvalue="[[-8,8,-8],[-4,4,-4]]"/>
 <rbl:seg jsvalue="[[-8,-8,-8],[-4,-4,-4]]"/>
 <rbl:seg jsvalue="[[4,-4,-4],[8,-8,-8]]"/>
 <rbl:seg jsvalue="[[4,-4,4],[8,-8,8]]"/>
 <rbl:seg jsvalue="[[-8,-8,8],[-4,-4,4]]"/>
 <rbl:seg jsvalue="[[-8,8,8],[-4,4,4]]"/>
 <rbl:seg jsvalue="[[4,4,4],[8,8,8]]"/>
 </rbl:segments>
</rbl:rbldata>


<g id="screenId" transform=" scale(1,-1)" onmousedown="onMouseDown(evt)" onmouseup="onMouseUp(evt)" onmousemove="onMouseMove(evt)">

<g style="stroke:rgb(170,0,0)" opacity="1" id="rgId"> 
<rect x="-21.0" y="-21.0" width="42.0" height="42.0" style="fill:rgb(0,0,0)" stroke="none"/>
<g id="redCursor" style="stroke-width:0.1">
<line/>
<line/>
</g>
<g id="redLinkMarker" style="stroke-width:0.1">
<line/>
</g>
<g id="redFrame" style="stroke-width:0.05">
<line/>
<line/>
<line/>
<line/>
</g>

<g id="redSegments" style="stroke-width:0.08">
<line x1="6.556036835575862" y1="4.193061526953789" x2="5.108559752676108" y2="-12.872092825190599"/>
<line x1="8.860497618675799" y1="-5.266806483985888" x2="5.108559752676108" y2="-12.872092825190599"/>
<line x1="10.360412469237547" y1="8.73186159788624" x2="8.860497618675799" y2="-5.266806483985888"/>
<line x1="10.360412469237547" y1="8.73186159788624" x2="6.556036835575862" y2="4.193061526953789"/>
<line x1="-11.257313221808662" y1="6.691507951417161" x2="6.556036835575862" y2="4.193061526953789"/>
<line x1="-4.102951579823096" y1="10.338251121576691" x2="-11.257313221808662" y2="6.691507951417161"/>
<line x1="-4.102951579823096" y1="10.338251121576691" x2="10.360412469237547" y2="8.73186159788624"/>
<line x1="-4.2673270195329245" y1="-2.729265438448716" x2="8.860497618675799" y2="-5.266806483985888"/>
<line x1="-4.2673270195329245" y1="-2.729265438448716" x2="-10.715488889821959" y2="-9.031123636962576"/>
<line x1="-10.715488889821959" y1="-9.031123636962576" x2="5.108559752676108" y2="-12.872092825190599"/>
<line x1="-11.257313221808662" y1="6.691507951417161" x2="-10.715488889821959" y2="-9.031123636962576"/>
<line x1="-4.102951579823096" y1="10.338251121576691" x2="-4.2673270195329245" y2="-2.729265438448716"/>
<line x1="-5.272121788903309" y1="3.1338245792914106" x2="2.890456376520344" y2="1.8486567009444117"/>
<line x1="-2.1576583015852986" y1="5.436674774822772" x2="-5.272121788903309" y2="3.1338245792914106"/>
<line x1="-2.1576583015852986" y1="5.436674774822772" x2="5.223478503130311" y2="4.402401109443908"/>
<line x1="5.223478503130311" y1="4.402401109443908" x2="2.890456376520344" y2="1.8486567009444117"/>
<line x1="2.890456376520344" y1="1.8486567009444117" x2="2.406806511645615" y2="-6.064456193146493"/>
<line x1="4.6793194735652435" y1="-2.7814544063607642" x2="2.406806511645615" y2="-6.064456193146493"/>
<line x1="5.223478503130311" y1="4.402401109443908" x2="4.6793194735652435" y2="-2.7814544063607642"/>
<line x1="-2.1576583015852986" y1="5.436674774822772" x2="-2.3376847069381212" y2="-1.495119086827019"/>
<line x1="-2.3376847069381212" y1="-1.495119086827019" x2="4.6793194735652435" y2="-2.7814544063607642"/>
<line x1="-2.3376847069381212" y1="-1.495119086827019" x2="-5.312228709866027" y2="-4.477200691439419"/>
<line x1="-5.312228709866027" y1="-4.477200691439419" x2="2.406806511645615" y2="-6.064456193146493"/>
<line x1="-5.272121788903309" y1="3.1338245792914106" x2="-5.312228709866027" y2="-4.477200691439419"/>
<line x1="-5.312228709866027" y1="-4.477200691439419" x2="-10.715488889821959" y2="-9.031123636962576"/>
<line x1="-11.257313221808662" y1="6.691507951417161" x2="-5.272121788903309" y2="3.1338245792914106"/>
<line x1="-4.102951579823096" y1="10.338251121576691" x2="-2.1576583015852986" y2="5.436674774822772"/>
<line x1="-2.3376847069381212" y1="-1.495119086827019" x2="-4.2673270195329245" y2="-2.729265438448716"/>
<line x1="4.6793194735652435" y1="-2.7814544063607642" x2="8.860497618675799" y2="-5.266806483985888"/>
<line x1="10.360412469237547" y1="8.73186159788624" x2="5.223478503130311" y2="4.402401109443908"/>
<line x1="6.556036835575862" y1="4.193061526953789" x2="2.890456376520344" y2="1.8486567009444117"/>
<line x1="2.406806511645615" y1="-6.064456193146493" x2="5.108559752676108" y2="-12.872092825190599"/>
<line/>
<line/>
</g>
<g id="redSelected" style="stroke-width:0.15">
<line/>
</g>
</g>

<g style="stroke:rgb(0,0,255)" opacity="0.5" id="bgId">
<rect x="-21.0" y="-21.0" width="42.0" height="42.0" style="fill:rgb(0,0,0)" stroke="none"/>
<g id="blueCursor" style="stroke-width:0.1">
<line/>
<line/>
</g>
<g id="blueLinkMarker" style="stroke-width:0.1">
<line/>
</g>
<g id="blueFrame" style="stroke-width:0.05">
<line/>
<line/>
<line/>
<line/>
</g>
<g id="blueSegments" style="stroke-width:0.08">
<line x1="4.8129534327590555" y1="4.193061526953789" x2="4.312004760936917" y2="-12.872092825190599"/>
<line x1="9.552461194415258" y1="-5.266806483985888" x2="4.312004760936917" y2="-12.872092825190599"/>
<line x1="10.468106889787546" y1="8.73186159788624" x2="9.552461194415258" y2="-5.266806483985888"/>
<line x1="10.468106889787546" y1="8.73186159788624" x2="4.8129534327590555" y2="4.193061526953789"/>
<line x1="-12.136456927435658" y1="6.691507951417161" x2="4.8129534327590555" y2="4.193061526953789"/>
<line x1="-3.463196596031386" y1="10.338251121576691" x2="-12.136456927435658" y2="6.691507951417161"/>
<line x1="-3.463196596031386" y1="10.338251121576691" x2="10.468106889787546" y2="8.73186159788624"/>
<line x1="-3.1327533298647836" y1="-2.729265438448716" x2="9.552461194415258" y2="-5.266806483985888"/>
<line x1="-3.1327533298647836" y1="-2.729265438448716" x2="-10.826874258920517" y2="-9.031123636962576"/>
<line x1="-10.826874258920517" y1="-9.031123636962576" x2="4.312004760936917" y2="-12.872092825190599"/>
<line x1="-12.136456927435658" y1="6.691507951417161" x2="-10.826874258920517" y2="-9.031123636962576"/>
<line x1="-3.463196596031386" y1="10.338251121576691" x2="-3.1327533298647836" y2="-2.729265438448716"/>
<line x1="-5.683849933504815" y1="3.1338245792914106" x2="2.121957561940993" y2="1.8486567009444117"/>
<line x1="-1.821224243102388" y1="5.436674774822772" x2="-5.683849933504815" y2="3.1338245792914106"/>
<line x1="-1.821224243102388" y1="5.436674774822772" x2="5.27777552000298" y2="4.402401109443908"/>
<line x1="5.27777552000298" y1="4.402401109443908" x2="2.121957561940993" y2="1.8486567009444117"/>
<line x1="2.121957561940993" y1="1.8486567009444117" x2="2.0315238813509597" y2="-6.064456193146493"/>
<line x1="5.044752519687929" y1="-2.7814544063607642" x2="2.0315238813509597" y2="-6.064456193146493"/>
<line x1="5.27777552000298" y1="4.402401109443908" x2="5.044752519687929" y2="-2.7814544063607642"/>
<line x1="-1.821224243102388" y1="5.436674774822772" x2="-1.7161538162678607" y2="-1.495119086827019"/>
<line x1="-1.7161538162678607" y1="-1.495119086827019" x2="5.044752519687929" y2="-2.7814544063607642"/>
<line x1="-1.7161538162678607" y1="-1.495119086827019" x2="-5.36744826743063" y2="-4.477200691439419"/>
<line x1="-5.36744826743063" y1="-4.477200691439419" x2="2.0315238813509597" y2="-6.064456193146493"/>
<line x1="-5.683849933504815" y1="3.1338245792914106" x2="-5.36744826743063" y2="-4.477200691439419"/>
<line x1="-5.36744826743063" y1="-4.477200691439419" x2="-10.826874258920517" y2="-9.031123636962576"/>
<line x1="-12.136456927435658" y1="6.691507951417161" x2="-5.683849933504815" y2="3.1338245792914106"/>
<line x1="-3.463196596031386" y1="10.338251121576691" x2="-1.821224243102388" y2="5.436674774822772"/>
<line x1="-1.7161538162678607" y1="-1.495119086827019" x2="-3.1327533298647836" y2="-2.729265438448716"/>
<line x1="5.044752519687929" y1="-2.7814544063607642" x2="9.552461194415258" y2="-5.266806483985888"/>
<line x1="10.468106889787546" y1="8.73186159788624" x2="5.27777552000298" y2="4.402401109443908"/>
<line x1="4.8129534327590555" y1="4.193061526953789" x2="2.121957561940993" y2="1.8486567009444117"/>
<line x1="2.0315238813509597" y1="-6.064456193146493" x2="4.312004760936917" y2="-12.872092825190599"/>
<line/>
<line/>
</g>
<g id="blueSelected" style="stroke-width:0.15">
<line/>
</g>
</g>

</g>




<g id="leftMenuId" font-size="1" transform="translate(-21,0)">

<text id="cursorTxt" y="-10" fill="white" font-family="Verdana"/>

<svg y="-8" width="1" height="1.3" onmousedown="jumpToNearestEndtpoint()">
<rect width="1" height="1.3" fill="grey"/>
<text y="1" fill="white">J</text>
</svg>

<svg y="-6" width="1" height="1" onmousedown="deleteSelected()">
<rect width="1" height="1" fill="grey"/>
<text y="1" fill="white">#</text>
</svg>

<svg y="-4" width="1" height="1" onmousedown="linkSelect()">
<rect width="1" height="1" fill="grey"/>
<text y="1" fill="white">S</text>
</svg>

<svg y="-2" width="1" height="1" onmousedown="selectAll()">
<rect width="1" height="1" fill="grey"/>
<text y="1" fill="white">A</text>
</svg>

<svg y="0" width="1" height="1" onmousedown="starSelect()">
<rect width="1" height="1" fill="grey"/>
<text y="1" fill="white">*</text>
</svg>



<svg y="2" width="1" height="1" onmousedown="toggleSelections()">
<rect width="1" height="1" fill="grey"/>
<text y="1" fill="white">X</text>
</svg>

<svg y="4" width="1" height="1" onmousedown="forward()">
<rect width="1" height="1" fill="grey"/>
<text y="1" fill="white">F</text>
</svg>

<svg y="6" width="1" height="1" onmousedown="back()">
<rect width="1" height="1" fill="grey"/>
<text y="1" fill="white">B</text>
</svg>


</g>

<g id="rightMenuId" font-size="1" transform="translate(20,0)">

<svg y="-6" width="1" height="1" onmousedown="help()">
<rect width="1" height="1" fill="grey"/>
<text y="1" fill="white">?<desc> Help </desc></text>
</svg>

<svg y="-4" width="1" height="1" onmousedown="linkingPlus()">
<rect width="1" height="1" fill="grey"/>
<text y="1" fill="white">+</text>
</svg>

<svg y="-2" width="1" height="1" onmousedown="linkingMinus()">
<rect width="1" height="1" fill="grey"/>
<text y="1" fill="white">-</text>
</svg>

<svg y="0" width="1" height="1" onmousedown="rotationReset()">
<rect width="1" height="1" fill="grey"/>
<text y="1" fill="white">L</text>
</svg>

<svg y="2" width="1" height="1" onmousedown="toggleMonoStereo()">
<rect width="1" height="1" fill="grey"/>
<text y="1" fill="white">E</text>
</svg>

<svg y="4" width="1" height="1" onmousedown="switchMode()">
<rect width="1" height="1" fill="grey"/>
<text y="1" fill="white">M</text>
</svg>

<svg y="6" width="1" height="1" onmousedown="dump()">
<rect width="1" height="1" fill="grey"/>
<text y="1" fill="white">D</text>
</svg>


</g>

<script id="rblDataId" type="text/javascript">
var rbl="test";
</script>

<script id="rblProgramId" type="text/javascript" xlink:href="rbl.js"> <![CDATA[
/*
*/
]]> </script>

</svg>

